<svg xmlns="http://www.w3.org/2000/svg" viewBox="0 0 160 120"><path d="M80.00,112.00L80.00,8.00M28.00,60.00L132.00,60.00" fill="none" stroke="#2a2820" stroke-width="0.6"/><path d="M90.83,91.55L89.88,91.42M91.92,91.67L90.83,91.55M93.00,91.74L91.92,91.67M94.08,91.78L93.00,91.74M95.17,91.77L94.08,91.78M96.25,91.72L95.17,91.77M97.33,91.63L96.25,91.72M98.42,91.49L97.33,91.63M98.93,91.42L98.42,91.49M86.50,90.65L85.51,90.33M87.58,90.94L86.50,90.65M88.67,91.19L87.58,90.94M89.75,91.40L88.67,91.19M89.88,91.42L89.75,91.40M98.93,91.42L99.50,91.32M100.58,91.11L99.50,91.32M101.67,90.85L100.58,91.11M102.75,90.55L101.67,90.85M103.43,90.33L102.75,90.55M83.25,89.46L82.80,89.25M84.33,89.91L83.25,89.46M85.42,90.30L84.33,89.91M85.51,90.33L85.42,90.30M103.43,90.33L103.83,90.20M104.92,89.81L103.83,90.20M106.00,89.37L104.92,89.81M106.27,89.25L106.00,89.37M81.08,88.37L80.72,88.17M82.17,88.95L81.08,88.37M82.80,89.25L82.17,88.95M106.27,89.25L107.08,88.88M108.17,88.34L107.08,88.88M108.48,88.17L108.17,88.34M80.00,87.73L79.01,87.08M80.72,88.17L80.00,87.73M108.48,88.17L109.25,87.74M110.33,87.08L109.25,87.74M77.83,86.22L77.56,86.00M78.92,87.02L77.83,86.22M79.01,87.08L78.92,87.02M110.33,87.08L110.33,87.08M111.42,86.36L110.33,87.08M111.93,86.00L111.42,86.36M76.75,85.32L76.30,84.92M77.56,86.00L76.75,85.32M111.93,86.00L112.50,85.57M113.33,84.92L112.50,85.57M75.67,84.31L75.20,83.83M76.30,84.92L75.67,84.31M113.33,84.92L113.58,84.71M114.59,83.83L113.58,84.71M74.58,83.16L74.23,82.75M75.20,83.83L74.58,83.16M114.59,83.83L114.67,83.76M115.73,82.75L114.67,83.76M73.50,81.84L73.37,81.67M74.23,82.75L73.50,81.84M115.73,82.75L115.75,82.73M116.75,81.67L115.75,82.73M73.37,81.67L72.60,80.58M116.75,81.67L116.83,81.58M117.69,80.58L116.83,81.58M72.42,80.30L71.93,79.50M72.60,80.58L72.42,80.30M117.69,80.58L117.92,80.31M118.55,79.50L117.92,80.31M71.93,79.50L71.33,78.42M118.55,79.50L119.00,78.89M119.33,78.42L119.00,78.89M71.33,78.41L70.81,77.33M71.33,78.42L71.33,78.41M119.33,78.42L120.05,77.33M70.81,77.33L70.36,76.25M120.05,77.33L120.08,77.28M120.71,76.25L120.08,77.28M70.25,75.95L69.98,75.17M70.36,76.25L70.25,75.95M120.71,76.25L121.17,75.43M121.31,75.17L121.17,75.43M69.98,75.17L69.66,74.08M121.31,75.17L121.86,74.08M69.66,74.08L69.40,73.00M121.86,74.08L122.25,73.23M122.35,73.00L122.25,73.23M69.40,73.00L69.19,71.92M122.35,73.00L122.80,71.92M69.17,71.76L69.04,70.83M69.19,71.92L69.17,71.76M122.80,71.92L123.21,70.83M69.04,70.83L68.95,69.75M123.21,70.83L123.33,70.47M123.57,69.75L123.33,70.47M68.95,69.75L68.91,68.67M123.57,69.75L123.89,68.67M68.91,68.67L68.92,67.58M123.89,68.67L124.17,67.58M68.92,67.58L68.97,66.50M124.17,67.58L124.41,66.50M68.97,66.50L69.07,65.42M124.41,66.50L124.42,66.47M124.61,65.42L124.42,66.47M69.07,65.42L69.17,64.53M69.19,64.33L69.17,64.53M124.61,65.42L124.78,64.33M69.19,64.33L69.33,63.25M124.78,64.33L124.90,63.25M69.33,63.25L69.47,62.17M124.90,63.25L124.99,62.17M69.47,62.17L69.56,61.08M124.99,62.17L125.05,61.08M69.56,61.08L69.60,60.00M80.00,60.00L80.00,60.00M80.00,60.00L80.00,60.00M125.05,61.08L125.07,60.00M69.60,60.00L69.56,58.92M80.00,60.00L80.00,60.00M80.00,60.00L80.00,60.00M125.07,60.00L125.05,58.92M69.56,58.92L69.47,57.83M125.05,58.92L124.99,57.83M69.47,57.83L69.33,56.75M124.99,57.83L124.90,56.75M69.33,56.75L69.19,55.67M124.90,56.75L124.78,55.67M69.17,55.47L69.07,54.58M69.19,55.67L69.17,55.47M124.78,55.67L124.61,54.58M69.07,54.58L68.97,53.50M124.42,53.53L124.41,53.50M124.61,54.58L124.42,53.53M68.97,53.50L68.92,52.42M124.41,53.50L124.17,52.42M68.92,52.42L68.91,51.33M124.17,52.42L123.89,51.33M68.91,51.33L68.95,50.25M123.89,51.33L123.57,50.25M68.95,50.25L69.04,49.17M123.33,49.53L123.21,49.17M123.57,50.25L123.33,49.53M69.04,49.17L69.17,48.24M69.19,48.08L69.17,48.24M123.21,49.17L122.80,48.08M69.19,48.08L69.40,47.00M122.80,48.08L122.35,47.00M69.40,47.00L69.66,45.92M122.25,46.77L121.86,45.92M122.35,47.00L122.25,46.77M69.66,45.92L69.98,44.83M121.86,45.92L121.31,44.83M69.98,44.83L70.25,44.05M70.36,43.75L70.25,44.05M121.17,44.57L120.71,43.75M121.31,44.83L121.17,44.57M70.36,43.75L70.81,42.67M120.08,42.72L120.05,42.67M120.71,43.75L120.08,42.72M70.81,42.67L71.33,41.59M71.33,41.58L71.33,41.59M120.05,42.67L119.33,41.58M71.33,41.58L71.93,40.50M119.00,41.11L118.55,40.50M119.33,41.58L119.00,41.11M71.93,40.50L72.42,39.70M72.60,39.42L72.42,39.70M117.92,39.69L117.69,39.42M118.55,40.50L117.92,39.69M72.60,39.42L73.37,38.33M116.83,38.42L116.75,38.33M117.69,39.42L116.83,38.42M73.37,38.33L73.50,38.16M74.23,37.25L73.50,38.16M115.75,37.27L115.73,37.25M116.75,38.33L115.75,37.27M74.23,37.25L74.58,36.84M75.20,36.17L74.58,36.84M114.67,36.24L114.59,36.17M115.73,37.25L114.67,36.24M75.20,36.17L75.67,35.69M76.30,35.08L75.67,35.69M113.58,35.29L113.33,35.08M114.59,36.17L113.58,35.29M76.30,35.08L76.75,34.68M77.56,34.00L76.75,34.68M112.50,34.43L111.93,34.00M113.33,35.08L112.50,34.43M77.56,34.00L77.83,33.78M78.92,32.98L77.83,33.78M79.01,32.92L78.92,32.98M110.33,32.92L110.33,32.92M111.42,33.64L110.33,32.92M111.93,34.00L111.42,33.64M79.01,32.92L80.00,32.27M80.72,31.83L80.00,32.27M109.25,32.26L108.48,31.83M110.33,32.92L109.25,32.26M80.72,31.83L81.08,31.63M82.17,31.05L81.08,31.63M82.80,30.75L82.17,31.05M107.08,31.12L106.27,30.75M108.17,31.66L107.08,31.12M108.48,31.83L108.17,31.66M82.80,30.75L83.25,30.54M84.33,30.09L83.25,30.54M85.42,29.70L84.33,30.09M85.51,29.67L85.42,29.70M103.83,29.80L103.43,29.67M104.92,30.19L103.83,29.80M106.00,30.63L104.92,30.19M106.27,30.75L106.00,30.63M85.51,29.67L86.50,29.35M87.58,29.06L86.50,29.35M88.67,28.81L87.58,29.06M89.75,28.60L88.67,28.81M89.88,28.58L89.75,28.60M99.50,28.68L98.93,28.58M100.58,28.89L99.50,28.68M101.67,29.15L100.58,28.89M102.75,29.45L101.67,29.15M103.43,29.67L102.75,29.45M89.88,28.58L90.83,28.45M91.92,28.33L90.83,28.45M93.00,28.26L91.92,28.33M94.08,28.22L93.00,28.26M95.17,28.23L94.08,28.22M96.25,28.28L95.17,28.23M97.33,28.37L96.25,28.28M98.42,28.51L97.33,28.37M98.93,28.58L98.42,28.51" fill="none" stroke="#e8643a" stroke-width="1.15" stroke-linecap="round" stroke-linejoin="round"/></svg>