<svg xmlns="http://www.w3.org/2000/svg" viewBox="0 0 160 120"><path d="M80.00,112.00L80.00,8.00M28.00,60.00L132.00,60.00" fill="none" stroke="#2a2820" stroke-width="0.6"/><path d="M49.67,75.28L48.93,75.17M50.75,75.38L49.67,75.28M51.83,75.41L50.75,75.38M52.92,75.36L51.83,75.41M54.00,75.24L52.92,75.36M54.47,75.17L54.00,75.24M106.00,75.24L105.53,75.17M107.08,75.36L106.00,75.24M108.17,75.41L107.08,75.36M109.25,75.38L108.17,75.41M110.33,75.28L109.25,75.38M111.07,75.17L110.33,75.28M46.42,74.51L45.34,74.08M47.50,74.85L46.42,74.51M48.58,75.10L47.50,74.85M48.93,75.17L48.58,75.10M54.47,75.17L55.08,75.05M56.17,74.78L55.08,75.05M57.25,74.42L56.17,74.78M58.11,74.08L57.25,74.42M102.75,74.42L101.89,74.08M103.83,74.78L102.75,74.42M104.92,75.05L103.83,74.78M105.53,75.17L104.92,75.05M111.07,75.17L111.42,75.10M112.50,74.85L111.42,75.10M113.58,74.51L112.50,74.85M114.66,74.08L113.58,74.51M44.25,73.55L43.29,73.00M45.33,74.08L44.25,73.55M45.34,74.08L45.33,74.08M58.11,74.08L58.33,73.99M59.42,73.45L58.33,73.99M60.21,73.00L59.42,73.45M100.58,73.45L99.79,73.00M101.67,73.99L100.58,73.45M101.89,74.08L101.67,73.99M114.66,74.08L114.67,74.08M115.75,73.55L114.67,74.08M116.71,73.00L115.75,73.55M42.08,72.16L41.78,71.92M43.17,72.92L42.08,72.16M43.29,73.00L43.17,72.92M60.21,73.00L60.50,72.82M61.58,72.06L60.50,72.82M61.77,71.92L61.58,72.06M98.42,72.06L98.23,71.92M99.50,72.82L98.42,72.06M99.79,73.00L99.50,72.82M116.71,73.00L116.83,72.92M117.92,72.16L116.83,72.92M118.22,71.92L117.92,72.16M41.00,71.24L40.58,70.83M41.78,71.92L41.00,71.24M61.77,71.92L62.67,71.16M63.02,70.83L62.67,71.16M97.33,71.16L96.98,70.83M98.23,71.92L97.33,71.16M118.22,71.92L119.00,71.24M119.42,70.83L119.00,71.24M39.92,70.13L39.59,69.75M40.58,70.83L39.92,70.13M63.02,70.83L63.75,70.09M64.06,69.75L63.75,70.09M96.25,70.09L95.94,69.75M96.98,70.83L96.25,70.09M119.42,70.83L120.08,70.13M120.41,69.75L120.08,70.13M38.83,68.75L38.78,68.67M39.59,69.75L38.83,68.75M64.06,69.75L64.83,68.78M64.92,68.67L64.83,68.78M95.17,68.78L95.08,68.67M95.94,69.75L95.17,68.78M120.41,69.75L121.17,68.75M121.22,68.67L121.17,68.75M38.78,68.67L38.10,67.58M64.92,68.67L65.64,67.58M95.08,68.67L94.36,67.58M121.22,68.67L121.90,67.58M37.75,66.94L37.53,66.50M38.10,67.58L37.75,66.94M65.64,67.58L65.92,67.11M66.24,66.50L65.92,67.11M94.08,67.11L93.76,66.50M94.36,67.58L94.08,67.11M121.90,67.58L122.25,66.94M122.47,66.50L122.25,66.94M37.53,66.50L37.07,65.42M66.24,66.50L66.74,65.42M93.76,66.50L93.26,65.42M122.47,66.50L122.93,65.42M37.07,65.42L36.71,64.33M66.74,65.42L67.00,64.73M67.13,64.33L67.00,64.73M93.00,64.73L92.87,64.33M93.26,65.42L93.00,64.73M122.93,65.42L123.29,64.33M36.67,64.19L36.43,63.25M36.71,64.33L36.67,64.19M67.13,64.33L67.44,63.25M92.87,64.33L92.56,63.25M123.29,64.33L123.33,64.19M123.57,63.25L123.33,64.19M36.43,63.25L36.24,62.17M67.44,63.25L67.65,62.17M92.56,63.25L92.35,62.17M123.57,63.25L123.76,62.17M36.24,62.17L36.12,61.08M67.65,62.17L67.78,61.08M92.35,62.17L92.22,61.08M123.76,62.17L123.88,61.08M36.12,61.08L36.08,60.00M67.78,61.08L67.82,60.00M92.22,61.08L92.18,60.00M123.88,61.08L123.92,60.00M36.08,60.00L36.12,58.92M67.82,60.00L67.78,58.92M92.18,60.00L92.22,58.92M123.92,60.00L123.88,58.92M36.12,58.92L36.24,57.83M67.78,58.92L67.65,57.83M92.22,58.92L92.35,57.83M123.88,58.92L123.76,57.83M36.24,57.83L36.43,56.75M67.65,57.83L67.44,56.75M92.35,57.83L92.56,56.75M123.76,57.83L123.57,56.75M36.43,56.75L36.67,55.81M36.71,55.67L36.67,55.81M67.44,56.75L67.13,55.67M92.56,56.75L92.87,55.67M123.33,55.81L123.29,55.67M123.57,56.75L123.33,55.81M36.71,55.67L37.07,54.58M67.00,55.27L66.74,54.58M67.13,55.67L67.00,55.27M92.87,55.67L93.00,55.27M93.26,54.58L93.00,55.27M123.29,55.67L122.93,54.58M37.07,54.58L37.53,53.50M66.74,54.58L66.24,53.50M93.26,54.58L93.76,53.50M122.93,54.58L122.47,53.50M37.53,53.50L37.75,53.06M38.10,52.42L37.75,53.06M65.92,52.89L65.64,52.42M66.24,53.50L65.92,52.89M93.76,53.50L94.08,52.89M94.36,52.42L94.08,52.89M122.25,53.06L121.90,52.42M122.47,53.50L122.25,53.06M38.10,52.42L38.78,51.33M65.64,52.42L64.92,51.33M94.36,52.42L95.08,51.33M121.90,52.42L121.22,51.33M38.78,51.33L38.83,51.25M39.59,50.25L38.83,51.25M64.83,51.22L64.06,50.25M64.92,51.33L64.83,51.22M95.08,51.33L95.17,51.22M95.94,50.25L95.17,51.22M121.17,51.25L120.41,50.25M121.22,51.33L121.17,51.25M39.59,50.25L39.92,49.87M40.58,49.17L39.92,49.87M63.75,49.91L63.02,49.17M64.06,50.25L63.75,49.91M95.94,50.25L96.25,49.91M96.98,49.17L96.25,49.91M120.08,49.87L119.42,49.17M120.41,50.25L120.08,49.87M40.58,49.17L41.00,48.76M41.78,48.08L41.00,48.76M62.67,48.84L61.77,48.08M63.02,49.17L62.67,48.84M96.98,49.17L97.33,48.84M98.23,48.08L97.33,48.84M119.00,48.76L118.22,48.08M119.42,49.17L119.00,48.76M41.78,48.08L42.08,47.84M43.17,47.08L42.08,47.84M43.29,47.00L43.17,47.08M60.50,47.18L60.21,47.00M61.58,47.94L60.50,47.18M61.77,48.08L61.58,47.94M98.23,48.08L98.42,47.94M99.50,47.18L98.42,47.94M99.79,47.00L99.50,47.18M116.83,47.08L116.71,47.00M117.92,47.84L116.83,47.08M118.22,48.08L117.92,47.84M43.29,47.00L44.25,46.45M45.33,45.92L44.25,46.45M45.34,45.92L45.33,45.92M58.33,46.01L58.11,45.92M59.42,46.55L58.33,46.01M60.21,47.00L59.42,46.55M99.79,47.00L100.58,46.55M101.67,46.01L100.58,46.55M101.89,45.92L101.67,46.01M114.67,45.92L114.66,45.92M115.75,46.45L114.67,45.92M116.71,47.00L115.75,46.45M45.34,45.92L46.42,45.49M47.50,45.15L46.42,45.49M48.58,44.90L47.50,45.15M48.93,44.83L48.58,44.90M55.08,44.95L54.47,44.83M56.17,45.22L55.08,44.95M57.25,45.58L56.17,45.22M58.11,45.92L57.25,45.58M101.89,45.92L102.75,45.58M103.83,45.22L102.75,45.58M104.92,44.95L103.83,45.22M105.53,44.83L104.92,44.95M111.42,44.90L111.07,44.83M112.50,45.15L111.42,44.90M113.58,45.49L112.50,45.15M114.66,45.92L113.58,45.49M48.93,44.83L49.67,44.72M50.75,44.62L49.67,44.72M51.83,44.59L50.75,44.62M52.92,44.64L51.83,44.59M54.00,44.76L52.92,44.64M54.47,44.83L54.00,44.76M105.53,44.83L106.00,44.76M107.08,44.64L106.00,44.76M108.17,44.59L107.08,44.64M109.25,44.62L108.17,44.59M110.33,44.72L109.25,44.62M111.07,44.83L110.33,44.72" fill="none" stroke="#e8643a" stroke-width="1.15" stroke-linecap="round" stroke-linejoin="round"/></svg>