<svg xmlns="http://www.w3.org/2000/svg" viewBox="0 0 160 120"><path d="M80.00,112.00L80.00,8.00M28.00,60.00L132.00,60.00" fill="none" stroke="#2a2820" stroke-width="0.6"/><path d="M46.57,112.00L46.71,110.92M63.75,111.83L63.44,110.92M63.79,112.00L63.75,111.83M74.37,112.00L74.58,111.88M75.67,111.38L74.58,111.88M76.75,111.00L75.67,111.38M77.06,110.92L76.75,111.00M83.25,111.00L82.94,110.92M84.33,111.38L83.25,111.00M85.42,111.88L84.33,111.38M85.63,112.00L85.42,111.88M96.21,112.00L96.25,111.83M96.56,110.92L96.25,111.83M113.43,112.00L113.29,110.92M46.71,110.92L46.87,109.83M63.44,110.92L62.87,109.83M77.06,110.92L77.83,110.74M78.92,110.58L77.83,110.74M80.00,110.52L78.92,110.58M81.08,110.58L80.00,110.52M82.17,110.74L81.08,110.58M82.94,110.92L82.17,110.74M96.56,110.92L97.13,109.83M113.29,110.92L113.13,109.83M46.87,109.83L47.07,108.75M62.67,109.52L62.10,108.75M62.87,109.83L62.67,109.52M97.13,109.83L97.33,109.52M97.90,108.75L97.33,109.52M113.13,109.83L112.93,108.75M28.86,107.67L28.00,108.25M47.07,108.75L47.36,107.67M61.58,108.14L61.12,107.67M62.10,108.75L61.58,108.14M97.90,108.75L98.42,108.14M98.88,107.67L98.42,108.14M112.93,108.75L112.64,107.67M132.00,108.25L131.14,107.67M28.86,107.67L29.08,107.52M30.17,106.90L29.08,107.52M30.77,106.58L30.17,106.90M47.36,107.67L47.50,107.29M47.84,106.58L47.50,107.29M60.50,107.10L59.84,106.58M61.12,107.67L60.50,107.10M98.88,107.67L99.50,107.10M100.16,106.58L99.50,107.10M112.50,107.29L112.16,106.58M112.64,107.67L112.50,107.29M129.83,106.90L129.23,106.58M130.92,107.52L129.83,106.90M131.14,107.67L130.92,107.52M30.77,106.58L31.25,106.35M32.33,105.86L31.25,106.35M33.18,105.50L32.33,105.86M47.84,106.58L48.58,105.68M48.80,105.50L48.58,105.68M58.33,105.65L58.03,105.50M59.42,106.28L58.33,105.65M59.84,106.58L59.42,106.28M100.16,106.58L100.58,106.28M101.67,105.65L100.58,106.28M101.97,105.50L101.67,105.65M111.42,105.68L111.20,105.50M112.16,106.58L111.42,105.68M127.67,105.86L126.82,105.50M128.75,106.35L127.67,105.86M129.23,106.58L128.75,106.35M33.18,105.50L33.42,105.41M34.50,104.99L33.42,105.41M35.58,104.58L34.50,104.99M36.05,104.42L35.58,104.58M48.80,105.50L49.67,104.99M50.75,104.63L49.67,104.99M51.83,104.45L50.75,104.63M52.21,104.42L51.83,104.45M54.00,104.43L53.84,104.42M55.08,104.57L54.00,104.43M56.17,104.81L55.08,104.57M57.25,105.16L56.17,104.81M58.03,105.50L57.25,105.16M101.97,105.50L102.75,105.16M103.83,104.81L102.75,105.16M104.92,104.57L103.83,104.81M106.00,104.43L104.92,104.57M106.16,104.42L106.00,104.43M108.17,104.45L107.79,104.42M109.25,104.63L108.17,104.45M110.33,104.99L109.25,104.63M111.20,105.50L110.33,104.99M124.42,104.58L123.95,104.42M125.50,104.99L124.42,104.58M126.58,105.41L125.50,104.99M126.82,105.50L126.58,105.41M36.05,104.42L36.67,104.19M37.75,103.80L36.67,104.19M38.83,103.38L37.75,103.80M38.94,103.33L38.83,103.38M52.21,104.42L52.92,104.39M53.84,104.42L52.92,104.39M106.16,104.42L107.08,104.39M107.79,104.42L107.08,104.39M121.17,103.38L121.06,103.33M122.25,103.80L121.17,103.38M123.33,104.19L122.25,103.80M123.95,104.42L123.33,104.19M38.94,103.33L39.92,102.90M41.00,102.30L39.92,102.90M41.07,102.25L41.00,102.30M119.00,102.30L118.93,102.25M120.08,102.90L119.00,102.30M121.06,103.33L120.08,102.90M41.07,102.25L42.08,101.35M42.22,101.17L42.08,101.35M117.92,101.35L117.78,101.17M118.93,102.25L117.92,101.35M42.22,101.17L42.76,100.08M117.78,101.17L117.24,100.08M42.76,100.08L42.97,99.00M117.24,100.08L117.03,99.00M42.97,99.00L42.98,97.92M117.03,99.00L117.02,97.92M42.98,97.92L42.86,96.83M117.02,97.92L117.14,96.83M42.86,96.83L42.62,95.75M74.58,95.93L73.59,95.75M75.67,96.10L74.58,95.93M76.75,96.24L75.67,96.10M77.83,96.34L76.75,96.24M78.92,96.40L77.83,96.34M80.00,96.42L78.92,96.40M81.08,96.40L80.00,96.42M82.17,96.34L81.08,96.40M83.25,96.24L82.17,96.34M84.33,96.10L83.25,96.24M85.42,95.93L84.33,96.10M86.41,95.75L85.42,95.93M117.14,96.83L117.38,95.75M42.62,95.75L42.28,94.67M69.17,94.69L69.10,94.67M70.25,94.99L69.17,94.69M71.33,95.26L70.25,94.99M72.42,95.51L71.33,95.26M73.50,95.73L72.42,95.51M73.59,95.75L73.50,95.73M86.41,95.75L86.50,95.73M87.58,95.51L86.50,95.73M88.67,95.26L87.58,95.51M89.75,94.99L88.67,95.26M90.83,94.69L89.75,94.99M90.90,94.67L90.83,94.69M117.38,95.75L117.72,94.67M42.08,94.18L41.81,93.58M42.28,94.67L42.08,94.18M67.00,93.98L65.94,93.58M68.08,94.35L67.00,93.98M69.10,94.67L68.08,94.35M90.90,94.67L91.92,94.35M93.00,93.98L91.92,94.35M94.06,93.58L93.00,93.98M117.72,94.67L117.92,94.18M118.19,93.58L117.92,94.18M41.81,93.58L41.21,92.50M63.75,92.59L63.56,92.50M64.83,93.11L63.75,92.59M65.92,93.57L64.83,93.11M65.94,93.58L65.92,93.57M94.06,93.58L94.08,93.57M95.17,93.11L94.08,93.57M96.25,92.59L95.17,93.11M96.44,92.50L96.25,92.59M118.19,93.58L118.79,92.50M41.00,92.18L40.43,91.42M41.21,92.50L41.00,92.18M62.67,92.02L61.64,91.42M63.56,92.50L62.67,92.02M96.44,92.50L97.33,92.02M98.36,91.42L97.33,92.02M118.79,92.50L119.00,92.18M119.57,91.42L119.00,92.18M28.66,90.33L28.00,91.30M39.92,90.83L39.42,90.33M40.43,91.42L39.92,90.83M60.50,90.69L59.98,90.33M61.58,91.38L60.50,90.69M61.64,91.42L61.58,91.38M98.36,91.42L98.42,91.38M99.50,90.69L98.42,91.38M100.02,90.33L99.50,90.69M119.57,91.42L120.08,90.83M120.58,90.33L120.08,90.83M132.00,91.30L131.34,90.33M28.66,90.33L29.08,89.75M29.49,89.25L29.08,89.75M38.83,89.82L38.08,89.25M39.42,90.33L38.83,89.82M59.42,89.94L58.48,89.25M59.98,90.33L59.42,89.94M100.02,90.33L100.58,89.94M101.52,89.25L100.58,89.94M120.58,90.33L121.17,89.82M121.92,89.25L121.17,89.82M130.92,89.75L130.51,89.25M131.34,90.33L130.92,89.75M29.49,89.25L30.17,88.53M30.61,88.17L30.17,88.53M36.67,88.40L36.18,88.17M37.75,89.03L36.67,88.40M38.08,89.25L37.75,89.03M57.25,88.30L57.09,88.17M58.33,89.14L57.25,88.30M58.48,89.25L58.33,89.14M101.52,89.25L101.67,89.14M102.75,88.30L101.67,89.14M102.91,88.17L102.75,88.30M121.92,89.25L122.25,89.03M123.33,88.40L122.25,89.03M123.82,88.17L123.33,88.40M129.83,88.53L129.39,88.17M130.51,89.25L129.83,88.53M30.61,88.17L31.25,87.77M32.33,87.42L31.25,87.77M33.42,87.39L32.33,87.42M34.50,87.57L33.42,87.39M35.58,87.92L34.50,87.57M36.18,88.17L35.58,87.92M56.17,87.40L55.79,87.08M57.09,88.17L56.17,87.40M102.91,88.17L103.83,87.40M104.21,87.08L103.83,87.40M123.82,88.17L124.42,87.92M125.50,87.57L124.42,87.92M126.58,87.39L125.50,87.57M127.67,87.42L126.58,87.39M128.75,87.77L127.67,87.42M129.39,88.17L128.75,87.77M55.08,86.45L54.59,86.00M55.79,87.08L55.08,86.45M104.21,87.08L104.92,86.45M105.41,86.00L104.92,86.45M54.00,85.44L53.48,84.92M54.59,86.00L54.00,85.44M105.41,86.00L106.00,85.44M106.52,84.92L106.00,85.44M52.92,84.32L52.47,83.83M53.48,84.92L52.92,84.32M73.50,83.99L72.95,83.83M74.58,84.26L73.50,83.99M75.67,84.47L74.58,84.26M76.75,84.64L75.67,84.47M77.83,84.76L76.75,84.64M78.92,84.83L77.83,84.76M80.00,84.85L78.92,84.83M81.08,84.83L80.00,84.85M82.17,84.76L81.08,84.83M83.25,84.64L82.17,84.76M84.33,84.47L83.25,84.64M85.42,84.26L84.33,84.47M86.50,83.99L85.42,84.26M87.05,83.83L86.50,83.99M106.52,84.92L107.08,84.32M107.53,83.83L107.08,84.32M51.83,83.09L51.56,82.75M52.47,83.83L51.83,83.09M70.25,82.86L69.99,82.75M71.33,83.29L70.25,82.86M72.42,83.67L71.33,83.29M72.95,83.83L72.42,83.67M87.05,83.83L87.58,83.67M88.67,83.29L87.58,83.67M89.75,82.86L88.67,83.29M90.01,82.75L89.75,82.86M107.53,83.83L108.17,83.09M108.44,82.75L108.17,83.09M50.75,81.69L50.73,81.67M51.56,82.75L50.75,81.69M68.08,81.81L67.82,81.67M69.17,82.37L68.08,81.81M69.99,82.75L69.17,82.37M90.01,82.75L90.83,82.37M91.92,81.81L90.83,82.37M92.18,81.67L91.92,81.81M108.44,82.75L109.25,81.69M109.27,81.67L109.25,81.69M28.30,80.58L28.00,80.75M50.73,81.67L49.99,80.58M67.00,81.18L66.07,80.58M67.82,81.67L67.00,81.18M92.18,81.67L93.00,81.18M93.93,80.58L93.00,81.18M109.27,81.67L110.01,80.58M132.00,80.75L131.70,80.58M28.30,80.58L29.08,79.93M29.43,79.50L29.08,79.93M49.67,80.09L49.30,79.50M49.99,80.58L49.67,80.09M64.83,79.69L64.59,79.50M65.92,80.48L64.83,79.69M66.07,80.58L65.92,80.48M93.93,80.58L94.08,80.48M95.17,79.69L94.08,80.48M95.41,79.50L95.17,79.69M110.01,80.58L110.33,80.09M110.70,79.50L110.33,80.09M130.92,79.93L130.57,79.50M131.70,80.58L130.92,79.93M29.43,79.50L30.06,78.42M49.30,79.50L48.67,78.42M63.75,78.81L63.31,78.42M64.59,79.50L63.75,78.81M95.41,79.50L96.25,78.81M96.69,78.42L96.25,78.81M110.70,79.50L111.33,78.42M130.57,79.50L129.94,78.42M30.06,78.42L30.17,78.17M30.47,77.33L30.17,78.17M48.58,78.26L48.08,77.33M48.67,78.42L48.58,78.26M62.67,77.81L62.19,77.33M63.31,78.42L62.67,77.81M96.69,78.42L97.33,77.81M97.81,77.33L97.33,77.81M111.33,78.42L111.42,78.26M111.92,77.33L111.42,78.26M129.83,78.17L129.53,77.33M129.94,78.42L129.83,78.17M30.47,77.33L30.76,76.25M48.08,77.33L47.53,76.25M61.58,76.69L61.19,76.25M62.19,77.33L61.58,76.69M97.81,77.33L98.42,76.69M98.81,76.25L98.42,76.69M111.92,77.33L112.47,76.25M129.53,77.33L129.24,76.25M30.76,76.25L30.94,75.17M47.50,76.19L47.01,75.17M47.53,76.25L47.50,76.19M60.50,75.41L60.31,75.17M61.19,76.25L60.50,75.41M98.81,76.25L99.50,75.41M99.69,75.17L99.50,75.41M112.47,76.25L112.50,76.19M112.99,75.17L112.50,76.19M129.24,76.25L129.06,75.17M30.94,75.17L31.02,74.08M47.01,75.17L46.52,74.08M60.31,75.17L59.52,74.08M99.69,75.17L100.48,74.08M112.99,75.17L113.48,74.08M129.06,75.17L128.98,74.08M31.02,74.08L31.00,73.00M46.42,73.84L46.06,73.00M46.52,74.08L46.42,73.84M59.42,73.93L58.82,73.00M59.52,74.08L59.42,73.93M100.48,74.08L100.58,73.93M101.18,73.00L100.58,73.93M113.48,74.08L113.58,73.84M113.94,73.00L113.58,73.84M128.98,74.08L129.00,73.00M31.00,73.00L30.87,71.92M46.06,73.00L45.64,71.92M58.33,72.18L58.19,71.92M58.82,73.00L58.33,72.18M101.18,73.00L101.67,72.18M101.81,71.92L101.67,72.18M113.94,73.00L114.36,71.92M129.00,73.00L129.13,71.92M30.87,71.92L30.64,70.83M45.33,71.05L45.26,70.83M45.64,71.92L45.33,71.05M58.19,71.92L57.63,70.83M101.81,71.92L102.37,70.83M114.36,71.92L114.67,71.05M114.74,70.83L114.67,71.05M129.13,71.92L129.36,70.83M30.64,70.83L30.29,69.75M45.26,70.83L44.92,69.75M57.25,70.01L57.14,69.75M57.63,70.83L57.25,70.01M78.92,69.78L78.67,69.75M80.00,69.84L78.92,69.78M81.08,69.78L80.00,69.84M81.33,69.75L81.08,69.78M102.37,70.83L102.75,70.01M102.86,69.75L102.75,70.01M114.74,70.83L115.08,69.75M129.36,70.83L129.71,69.75M30.17,69.44L29.81,68.67M30.29,69.75L30.17,69.44M44.92,69.75L44.63,68.67M57.14,69.75L56.70,68.67M75.67,68.83L75.34,68.67M76.75,69.29L75.67,68.83M77.83,69.60L76.75,69.29M78.67,69.75L77.83,69.60M81.33,69.75L82.17,69.60M83.25,69.29L82.17,69.60M84.33,68.83L83.25,69.29M84.66,68.67L84.33,68.83M102.86,69.75L103.30,68.67M115.08,69.75L115.37,68.67M129.71,69.75L129.83,69.44M130.19,68.67L129.83,69.44M29.81,68.67L29.19,67.58M44.63,68.67L44.38,67.58M56.70,68.67L56.33,67.58M74.58,68.21L73.73,67.58M75.34,68.67L74.58,68.21M84.66,68.67L85.42,68.21M86.27,67.58L85.42,68.21M103.30,68.67L103.67,67.58M115.37,68.67L115.62,67.58M130.19,68.67L130.81,67.58M29.08,67.42L28.41,66.50M29.19,67.58L29.08,67.42M44.25,66.93L44.17,66.50M44.38,67.58L44.25,66.93M56.17,67.05L56.01,66.50M56.33,67.58L56.17,67.05M73.50,67.39L72.61,66.50M73.73,67.58L73.50,67.39M86.27,67.58L86.50,67.39M87.39,66.50L86.50,67.39M103.67,67.58L103.83,67.05M103.99,66.50L103.83,67.05M115.62,67.58L115.75,66.93M115.83,66.50L115.75,66.93M130.81,67.58L130.92,67.42M131.59,66.50L130.92,67.42M28.41,66.50L28.00,66.02M44.17,66.50L44.01,65.42M56.01,66.50L55.74,65.42M72.42,66.27L71.79,65.42M72.61,66.50L72.42,66.27M87.39,66.50L87.58,66.27M88.21,65.42L87.58,66.27M103.99,66.50L104.26,65.42M115.83,66.50L115.99,65.42M131.59,66.50L132.00,66.02M44.01,65.42L43.89,64.33M55.74,65.42L55.53,64.33M71.33,64.66L71.17,64.33M71.79,65.42L71.33,64.66M88.21,65.42L88.67,64.66M88.83,64.33L88.67,64.66M104.26,65.42L104.47,64.33M115.99,65.42L116.11,64.33M43.89,64.33L43.80,63.25M55.53,64.33L55.36,63.25M71.17,64.33L70.71,63.25M88.83,64.33L89.29,63.25M104.47,64.33L104.64,63.25M116.11,64.33L116.20,63.25M43.80,63.25L43.74,62.17M55.36,63.25L55.24,62.17M70.71,63.25L70.40,62.17M89.29,63.25L89.60,62.17M104.64,63.25L104.76,62.17M116.20,63.25L116.26,62.17M43.74,62.17L43.70,61.08M55.24,62.17L55.17,61.08M70.25,61.33L70.22,61.08M70.40,62.17L70.25,61.33M89.60,62.17L89.75,61.33M89.78,61.08L89.75,61.33M104.76,62.17L104.83,61.08M116.26,62.17L116.30,61.08M43.70,61.08L43.69,60.00M55.17,61.08L55.14,60.00M70.22,61.08L70.16,60.00M89.78,61.08L89.84,60.00M104.83,61.08L104.86,60.00M116.30,61.08L116.31,60.00M43.69,60.00L43.70,58.92M55.14,60.00L55.17,58.92M70.16,60.00L70.22,58.92M89.84,60.00L89.78,58.92M104.86,60.00L104.83,58.92M116.31,60.00L116.30,58.92M43.70,58.92L43.74,57.83M55.17,58.92L55.24,57.83M70.22,58.92L70.25,58.67M70.40,57.83L70.25,58.67M89.75,58.67L89.60,57.83M89.78,58.92L89.75,58.67M104.83,58.92L104.76,57.83M116.30,58.92L116.26,57.83M43.74,57.83L43.80,56.75M55.24,57.83L55.36,56.75M70.40,57.83L70.71,56.75M89.60,57.83L89.29,56.75M104.76,57.83L104.64,56.75M116.26,57.83L116.20,56.75M43.80,56.75L43.89,55.67M55.36,56.75L55.53,55.67M70.71,56.75L71.17,55.67M89.29,56.75L88.83,55.67M104.64,56.75L104.47,55.67M116.20,56.75L116.11,55.67M43.89,55.67L44.01,54.58M55.53,55.67L55.74,54.58M71.17,55.67L71.33,55.34M71.79,54.58L71.33,55.34M88.67,55.34L88.21,54.58M88.83,55.67L88.67,55.34M104.47,55.67L104.26,54.58M116.11,55.67L115.99,54.58M28.41,53.50L28.00,53.98M44.01,54.58L44.17,53.50M55.74,54.58L56.01,53.50M71.79,54.58L72.42,53.73M72.61,53.50L72.42,53.73M87.58,53.73L87.39,53.50M88.21,54.58L87.58,53.73M104.26,54.58L103.99,53.50M115.99,54.58L115.83,53.50M132.00,53.98L131.59,53.50M28.41,53.50L29.08,52.58M29.19,52.42L29.08,52.58M44.17,53.50L44.25,53.07M44.38,52.42L44.25,53.07M56.01,53.50L56.17,52.95M56.33,52.42L56.17,52.95M72.61,53.50L73.50,52.61M73.73,52.42L73.50,52.61M86.50,52.61L86.27,52.42M87.39,53.50L86.50,52.61M103.83,52.95L103.67,52.42M103.99,53.50L103.83,52.95M115.75,53.07L115.62,52.42M115.83,53.50L115.75,53.07M130.92,52.58L130.81,52.42M131.59,53.50L130.92,52.58M29.19,52.42L29.81,51.33M44.38,52.42L44.63,51.33M56.33,52.42L56.70,51.33M73.73,52.42L74.58,51.79M75.34,51.33L74.58,51.79M85.42,51.79L84.66,51.33M86.27,52.42L85.42,51.79M103.67,52.42L103.30,51.33M115.62,52.42L115.37,51.33M130.81,52.42L130.19,51.33M29.81,51.33L30.17,50.56M30.29,50.25L30.17,50.56M44.63,51.33L44.92,50.25M56.70,51.33L57.14,50.25M75.34,51.33L75.67,51.17M76.75,50.71L75.67,51.17M77.83,50.40L76.75,50.71M78.67,50.25L77.83,50.40M82.17,50.40L81.33,50.25M83.25,50.71L82.17,50.40M84.33,51.17L83.25,50.71M84.66,51.33L84.33,51.17M103.30,51.33L102.86,50.25M115.37,51.33L115.08,50.25M129.83,50.56L129.71,50.25M130.19,51.33L129.83,50.56M30.29,50.25L30.64,49.17M44.92,50.25L45.26,49.17M57.14,50.25L57.25,49.99M57.63,49.17L57.25,49.99M78.67,50.25L78.92,50.22M80.00,50.16L78.92,50.22M81.08,50.22L80.00,50.16M81.33,50.25L81.08,50.22M102.75,49.99L102.37,49.17M102.86,50.25L102.75,49.99M115.08,50.25L114.74,49.17M129.71,50.25L129.36,49.17M30.64,49.17L30.87,48.08M45.26,49.17L45.33,48.95M45.64,48.08L45.33,48.95M57.63,49.17L58.19,48.08M102.37,49.17L101.81,48.08M114.67,48.95L114.36,48.08M114.74,49.17L114.67,48.95M129.36,49.17L129.13,48.08M30.87,48.08L31.00,47.00M45.64,48.08L46.06,47.00M58.19,48.08L58.33,47.82M58.82,47.00L58.33,47.82M101.67,47.82L101.18,47.00M101.81,48.08L101.67,47.82M114.36,48.08L113.94,47.00M129.13,48.08L129.00,47.00M31.00,47.00L31.02,45.92M46.06,47.00L46.42,46.16M46.52,45.92L46.42,46.16M58.82,47.00L59.42,46.07M59.52,45.92L59.42,46.07M100.58,46.07L100.48,45.92M101.18,47.00L100.58,46.07M113.58,46.16L113.48,45.92M113.94,47.00L113.58,46.16M129.00,47.00L128.98,45.92M31.02,45.92L30.94,44.83M46.52,45.92L47.01,44.83M59.52,45.92L60.31,44.83M100.48,45.92L99.69,44.83M113.48,45.92L112.99,44.83M128.98,45.92L129.06,44.83M30.94,44.83L30.76,43.75M47.01,44.83L47.50,43.81M47.53,43.75L47.50,43.81M60.31,44.83L60.50,44.59M61.19,43.75L60.50,44.59M99.50,44.59L98.81,43.75M99.69,44.83L99.50,44.59M112.50,43.81L112.47,43.75M112.99,44.83L112.50,43.81M129.06,44.83L129.24,43.75M30.76,43.75L30.47,42.67M47.53,43.75L48.08,42.67M61.19,43.75L61.58,43.31M62.19,42.67L61.58,43.31M98.42,43.31L97.81,42.67M98.81,43.75L98.42,43.31M112.47,43.75L111.92,42.67M129.24,43.75L129.53,42.67M30.17,41.83L30.06,41.58M30.47,42.67L30.17,41.83M48.08,42.67L48.58,41.74M48.67,41.58L48.58,41.74M62.19,42.67L62.67,42.19M63.31,41.58L62.67,42.19M97.33,42.19L96.69,41.58M97.81,42.67L97.33,42.19M111.42,41.74L111.33,41.58M111.92,42.67L111.42,41.74M129.53,42.67L129.83,41.83M129.94,41.58L129.83,41.83M30.06,41.58L29.43,40.50M48.67,41.58L49.30,40.50M63.31,41.58L63.75,41.19M64.59,40.50L63.75,41.19M96.25,41.19L95.41,40.50M96.69,41.58L96.25,41.19M111.33,41.58L110.70,40.50M129.94,41.58L130.57,40.50M29.08,40.07L28.30,39.42M29.43,40.50L29.08,40.07M49.30,40.50L49.67,39.91M49.99,39.42L49.67,39.91M64.59,40.50L64.83,40.31M65.92,39.52L64.83,40.31M66.07,39.42L65.92,39.52M94.08,39.52L93.93,39.42M95.17,40.31L94.08,39.52M95.41,40.50L95.17,40.31M110.33,39.91L110.01,39.42M110.70,40.50L110.33,39.91M130.57,40.50L130.92,40.07M131.70,39.42L130.92,40.07M28.30,39.42L28.00,39.25M49.99,39.42L50.73,38.33M66.07,39.42L67.00,38.82M67.82,38.33L67.00,38.82M93.00,38.82L92.18,38.33M93.93,39.42L93.00,38.82M110.01,39.42L109.27,38.33M131.70,39.42L132.00,39.25M50.73,38.33L50.75,38.31M51.56,37.25L50.75,38.31M67.82,38.33L68.08,38.19M69.17,37.63L68.08,38.19M69.99,37.25L69.17,37.63M90.83,37.63L90.01,37.25M91.92,38.19L90.83,37.63M92.18,38.33L91.92,38.19M109.25,38.31L108.44,37.25M109.27,38.33L109.25,38.31M51.56,37.25L51.83,36.91M52.47,36.17L51.83,36.91M69.99,37.25L70.25,37.14M71.33,36.71L70.25,37.14M72.42,36.33L71.33,36.71M72.95,36.17L72.42,36.33M87.58,36.33L87.05,36.17M88.67,36.71L87.58,36.33M89.75,37.14L88.67,36.71M90.01,37.25L89.75,37.14M108.17,36.91L107.53,36.17M108.44,37.25L108.17,36.91M52.47,36.17L52.92,35.68M53.48,35.08L52.92,35.68M72.95,36.17L73.50,36.01M74.58,35.74L73.50,36.01M75.67,35.53L74.58,35.74M76.75,35.36L75.67,35.53M77.83,35.24L76.75,35.36M78.92,35.17L77.83,35.24M80.00,35.15L78.92,35.17M81.08,35.17L80.00,35.15M82.17,35.24L81.08,35.17M83.25,35.36L82.17,35.24M84.33,35.53L83.25,35.36M85.42,35.74L84.33,35.53M86.50,36.01L85.42,35.74M87.05,36.17L86.50,36.01M107.08,35.68L106.52,35.08M107.53,36.17L107.08,35.68M53.48,35.08L54.00,34.56M54.59,34.00L54.00,34.56M106.00,34.56L105.41,34.00M106.52,35.08L106.00,34.56M54.59,34.00L55.08,33.55M55.79,32.92L55.08,33.55M104.92,33.55L104.21,32.92M105.41,34.00L104.92,33.55M31.25,32.23L30.61,31.83M32.33,32.58L31.25,32.23M33.42,32.61L32.33,32.58M34.50,32.43L33.42,32.61M35.58,32.08L34.50,32.43M36.18,31.83L35.58,32.08M55.79,32.92L56.17,32.60M57.09,31.83L56.17,32.60M103.83,32.60L102.91,31.83M104.21,32.92L103.83,32.60M124.42,32.08L123.82,31.83M125.50,32.43L124.42,32.08M126.58,32.61L125.50,32.43M127.67,32.58L126.58,32.61M128.75,32.23L127.67,32.58M129.39,31.83L128.75,32.23M30.17,31.47L29.49,30.75M30.61,31.83L30.17,31.47M36.18,31.83L36.67,31.60M37.75,30.97L36.67,31.60M38.08,30.75L37.75,30.97M57.09,31.83L57.25,31.70M58.33,30.86L57.25,31.70M58.48,30.75L58.33,30.86M101.67,30.86L101.52,30.75M102.75,31.70L101.67,30.86M102.91,31.83L102.75,31.70M122.25,30.97L121.92,30.75M123.33,31.60L122.25,30.97M123.82,31.83L123.33,31.60M129.39,31.83L129.83,31.47M130.51,30.75L129.83,31.47M29.08,30.25L28.66,29.67M29.49,30.75L29.08,30.25M38.08,30.75L38.83,30.18M39.42,29.67L38.83,30.18M58.48,30.75L59.42,30.06M59.98,29.67L59.42,30.06M100.58,30.06L100.02,29.67M101.52,30.75L100.58,30.06M121.17,30.18L120.58,29.67M121.92,30.75L121.17,30.18M130.51,30.75L130.92,30.25M131.34,29.67L130.92,30.25M28.66,29.67L28.00,28.70M39.42,29.67L39.92,29.17M40.43,28.58L39.92,29.17M59.98,29.67L60.50,29.31M61.58,28.62L60.50,29.31M61.64,28.58L61.58,28.62M98.42,28.62L98.36,28.58M99.50,29.31L98.42,28.62M100.02,29.67L99.50,29.31M120.08,29.17L119.57,28.58M120.58,29.67L120.08,29.17M131.34,29.67L132.00,28.70M40.43,28.58L41.00,27.82M41.21,27.50L41.00,27.82M61.64,28.58L62.67,27.98M63.56,27.50L62.67,27.98M97.33,27.98L96.44,27.50M98.36,28.58L97.33,27.98M119.00,27.82L118.79,27.50M119.57,28.58L119.00,27.82M41.21,27.50L41.81,26.42M63.56,27.50L63.75,27.41M64.83,26.89L63.75,27.41M65.92,26.43L64.83,26.89M65.94,26.42L65.92,26.43M94.08,26.43L94.06,26.42M95.17,26.89L94.08,26.43M96.25,27.41L95.17,26.89M96.44,27.50L96.25,27.41M118.79,27.50L118.19,26.42M41.81,26.42L42.08,25.82M42.28,25.33L42.08,25.82M65.94,26.42L67.00,26.02M68.08,25.65L67.00,26.02M69.10,25.33L68.08,25.65M91.92,25.65L90.90,25.33M93.00,26.02L91.92,25.65M94.06,26.42L93.00,26.02M117.92,25.82L117.72,25.33M118.19,26.42L117.92,25.82M42.28,25.33L42.62,24.25M69.10,25.33L69.17,25.31M70.25,25.01L69.17,25.31M71.33,24.74L70.25,25.01M72.42,24.49L71.33,24.74M73.50,24.27L72.42,24.49M73.59,24.25L73.50,24.27M86.50,24.27L86.41,24.25M87.58,24.49L86.50,24.27M88.67,24.74L87.58,24.49M89.75,25.01L88.67,24.74M90.83,25.31L89.75,25.01M90.90,25.33L90.83,25.31M117.72,25.33L117.38,24.25M42.62,24.25L42.86,23.17M73.59,24.25L74.58,24.07M75.67,23.90L74.58,24.07M76.75,23.76L75.67,23.90M77.83,23.66L76.75,23.76M78.92,23.60L77.83,23.66M80.00,23.58L78.92,23.60M81.08,23.60L80.00,23.58M82.17,23.66L81.08,23.60M83.25,23.76L82.17,23.66M84.33,23.90L83.25,23.76M85.42,24.07L84.33,23.90M86.41,24.25L85.42,24.07M117.38,24.25L117.14,23.17M42.86,23.17L42.98,22.08M117.14,23.17L117.02,22.08M42.98,22.08L42.97,21.00M117.02,22.08L117.03,21.00M42.97,21.00L42.76,19.92M117.03,21.00L117.24,19.92M42.76,19.92L42.22,18.83M117.24,19.92L117.78,18.83M42.08,18.65L41.07,17.75M42.22,18.83L42.08,18.65M117.78,18.83L117.92,18.65M118.93,17.75L117.92,18.65M39.92,17.10L38.94,16.67M41.00,17.70L39.92,17.10M41.07,17.75L41.00,17.70M118.93,17.75L119.00,17.70M120.08,17.10L119.00,17.70M121.06,16.67L120.08,17.10M36.67,15.81L36.05,15.58M37.75,16.20L36.67,15.81M38.83,16.62L37.75,16.20M38.94,16.67L38.83,16.62M52.92,15.61L52.21,15.58M53.84,15.58L52.92,15.61M107.08,15.61L106.16,15.58M107.79,15.58L107.08,15.61M121.06,16.67L121.17,16.62M122.25,16.20L121.17,16.62M123.33,15.81L122.25,16.20M123.95,15.58L123.33,15.81M33.42,14.59L33.18,14.50M34.50,15.01L33.42,14.59M35.58,15.42L34.50,15.01M36.05,15.58L35.58,15.42M49.67,15.01L48.80,14.50M50.75,15.37L49.67,15.01M51.83,15.55L50.75,15.37M52.21,15.58L51.83,15.55M53.84,15.58L54.00,15.57M55.08,15.43L54.00,15.57M56.17,15.19L55.08,15.43M57.25,14.84L56.17,15.19M58.03,14.50L57.25,14.84M102.75,14.84L101.97,14.50M103.83,15.19L102.75,14.84M104.92,15.43L103.83,15.19M106.00,15.57L104.92,15.43M106.16,15.58L106.00,15.57M107.79,15.58L108.17,15.55M109.25,15.37L108.17,15.55M110.33,15.01L109.25,15.37M111.20,14.50L110.33,15.01M123.95,15.58L124.42,15.42M125.50,15.01L124.42,15.42M126.58,14.59L125.50,15.01M126.82,14.50L126.58,14.59M31.25,13.65L30.77,13.42M32.33,14.14L31.25,13.65M33.18,14.50L32.33,14.14M48.58,14.32L47.84,13.42M48.80,14.50L48.58,14.32M58.03,14.50L58.33,14.35M59.42,13.72L58.33,14.35M59.84,13.42L59.42,13.72M100.58,13.72L100.16,13.42M101.67,14.35L100.58,13.72M101.97,14.50L101.67,14.35M111.20,14.50L111.42,14.32M112.16,13.42L111.42,14.32M126.82,14.50L127.67,14.14M128.75,13.65L127.67,14.14M129.23,13.42L128.75,13.65M29.08,12.48L28.86,12.33M30.17,13.10L29.08,12.48M30.77,13.42L30.17,13.10M47.50,12.71L47.36,12.33M47.84,13.42L47.50,12.71M59.84,13.42L60.50,12.90M61.12,12.33L60.50,12.90M99.50,12.90L98.88,12.33M100.16,13.42L99.50,12.90M112.16,13.42L112.50,12.71M112.64,12.33L112.50,12.71M129.23,13.42L129.83,13.10M130.92,12.48L129.83,13.10M131.14,12.33L130.92,12.48M28.86,12.33L28.00,11.75M47.36,12.33L47.07,11.25M61.12,12.33L61.58,11.86M62.10,11.25L61.58,11.86M98.42,11.86L97.90,11.25M98.88,12.33L98.42,11.86M112.64,12.33L112.93,11.25M131.14,12.33L132.00,11.75M47.07,11.25L46.87,10.17M62.10,11.25L62.67,10.48M62.87,10.17L62.67,10.48M97.33,10.48L97.13,10.17M97.90,11.25L97.33,10.48M112.93,11.25L113.13,10.17M46.87,10.17L46.71,9.08M62.87,10.17L63.44,9.08M77.83,9.26L77.06,9.08M78.92,9.42L77.83,9.26M80.00,9.48L78.92,9.42M81.08,9.42L80.00,9.48M82.17,9.26L81.08,9.42M82.94,9.08L82.17,9.26M97.13,10.17L96.56,9.08M113.13,10.17L113.29,9.08M46.71,9.08L46.57,8.00M63.44,9.08L63.75,8.17M63.79,8.00L63.75,8.17M74.58,8.12L74.37,8.00M75.67,8.62L74.58,8.12M76.75,9.00L75.67,8.62M77.06,9.08L76.75,9.00M82.94,9.08L83.25,9.00M84.33,8.62L83.25,9.00M85.42,8.12L84.33,8.62M85.63,8.00L85.42,8.12M96.25,8.17L96.21,8.00M96.56,9.08L96.25,8.17M113.29,9.08L113.43,8.00" fill="none" stroke="#e8643a" stroke-width="1.15" stroke-linecap="round" stroke-linejoin="round"/></svg>