<svg xmlns="http://www.w3.org/2000/svg" viewBox="0 0 160 120"><path d="M80.00,112.00L80.00,8.00M28.00,60.00L132.00,60.00" fill="none" stroke="#2a2820" stroke-width="0.6"/><path d="M132.00,108.99L131.56,108.75M129.83,107.79L129.60,107.67M130.92,108.39L129.83,107.79M131.56,108.75L130.92,108.39M127.67,106.59L127.66,106.58M128.75,107.19L127.67,106.59M129.60,107.67L128.75,107.19M126.58,105.98L125.72,105.50M127.66,106.58L126.58,105.98M48.58,104.46L48.36,104.42M49.67,104.65L48.58,104.46M50.75,104.81L49.67,104.65M51.83,104.94L50.75,104.81M52.92,105.04L51.83,104.94M54.00,105.12L52.92,105.04M55.08,105.17L54.00,105.12M56.17,105.20L55.08,105.17M57.25,105.22L56.17,105.20M58.33,105.21L57.25,105.22M59.42,105.18L58.33,105.21M60.50,105.14L59.42,105.18M61.58,105.08L60.50,105.14M62.67,105.00L61.58,105.08M63.75,104.91L62.67,105.00M64.83,104.80L63.75,104.91M65.92,104.67L64.83,104.80M67.00,104.53L65.92,104.67M67.84,104.42L67.00,104.53M124.42,104.77L123.80,104.42M125.50,105.38L124.42,104.77M125.72,105.50L125.50,105.38M45.33,103.67L44.30,103.33M46.42,103.97L45.33,103.67M47.50,104.24L46.42,103.97M48.36,104.42L47.50,104.24M67.84,104.42L68.08,104.38M69.17,104.21L68.08,104.38M70.25,104.03L69.17,104.21M71.33,103.83L70.25,104.03M72.42,103.62L71.33,103.83M73.50,103.40L72.42,103.62M73.81,103.33L73.50,103.40M122.25,103.54L121.89,103.33M123.33,104.15L122.25,103.54M123.80,104.42L123.33,104.15M42.08,102.43L41.72,102.25M43.17,102.90L42.08,102.43M44.25,103.31L43.17,102.90M44.30,103.33L44.25,103.31M73.81,103.33L74.58,103.16M75.67,102.91L74.58,103.16M76.75,102.65L75.67,102.91M77.83,102.37L76.75,102.65M78.29,102.25L77.83,102.37M120.08,102.30L119.99,102.25M121.17,102.92L120.08,102.30M121.89,103.33L121.17,102.92M39.92,101.20L39.86,101.17M41.00,101.87L39.92,101.20M41.72,102.25L41.00,101.87M78.29,102.25L78.92,102.08M80.00,101.78L78.92,102.08M81.08,101.46L80.00,101.78M82.04,101.17L81.08,101.46M119.00,101.68L118.10,101.17M119.99,102.25L119.00,101.68M38.83,100.41L38.45,100.08M39.86,101.17L38.83,100.41M82.04,101.17L82.17,101.13M83.25,100.78L82.17,101.13M84.33,100.42L83.25,100.78M85.32,100.08L84.33,100.42M116.83,100.43L116.23,100.08M117.92,101.06L116.83,100.43M118.10,101.17L117.92,101.06M37.75,99.42L37.37,99.00M38.45,100.08L37.75,99.42M85.32,100.08L85.42,100.05M86.50,99.66L85.42,100.05M87.58,99.26L86.50,99.66M88.27,99.00L87.58,99.26M114.67,99.18L114.37,99.00M115.75,99.81L114.67,99.18M116.23,100.08L115.75,99.81M36.67,98.11L36.53,97.92M37.37,99.00L36.67,98.11M88.27,99.00L88.67,98.84M89.75,98.41L88.67,98.84M90.83,97.97L89.75,98.41M90.95,97.92L90.83,97.97M113.58,98.54L112.52,97.92M114.37,99.00L113.58,98.54M36.53,97.92L35.89,96.83M90.95,97.92L91.92,97.50M93.00,97.03L91.92,97.50M93.43,96.83L93.00,97.03M111.42,97.27L110.68,96.83M112.50,97.91L111.42,97.27M112.52,97.92L112.50,97.91M35.58,96.16L35.42,95.75M35.89,96.83L35.58,96.16M93.43,96.83L94.08,96.53M95.17,96.02L94.08,96.53M95.72,95.75L95.17,96.02M109.25,95.98L108.86,95.75M110.33,96.63L109.25,95.98M110.68,96.83L110.33,96.63M35.42,95.75L35.10,94.67M95.72,95.75L96.25,95.49M97.33,94.94L96.25,95.49M97.86,94.67L97.33,94.94M107.08,94.69L107.05,94.67M108.17,95.34L107.08,94.69M108.86,95.75L108.17,95.34M35.10,94.67L34.89,93.58M97.86,94.67L98.42,94.37M99.50,93.78L98.42,94.37M99.86,93.58L99.50,93.78M106.00,94.04L105.25,93.58M107.05,94.67L106.00,94.04M34.89,93.58L34.79,92.50M99.86,93.58L100.58,93.17M101.67,92.54L100.58,93.17M101.74,92.50L101.67,92.54M103.83,92.72L103.47,92.50M104.92,93.38L103.83,92.72M105.25,93.58L104.92,93.38M34.79,92.50L34.79,91.42M101.74,92.50L101.70,91.42M103.47,92.50L103.50,91.42M34.79,91.42L34.88,90.33M100.58,90.73L99.95,90.33M101.67,91.40L100.58,90.73M101.70,91.42L101.67,91.40M103.50,91.42L103.83,91.21M104.92,90.50L103.83,91.21M105.17,90.33L104.92,90.50M34.88,90.33L35.05,89.25M98.42,89.38L98.21,89.25M99.50,90.06L98.42,89.38M99.95,90.33L99.50,90.06M105.17,90.33L106.00,89.77M106.74,89.25L106.00,89.77M35.05,89.25L35.29,88.17M97.33,88.70L96.48,88.17M98.21,89.25L97.33,88.70M106.74,89.25L107.08,89.01M108.17,88.21L107.08,89.01M108.23,88.17L108.17,88.21M35.29,88.17L35.58,87.15M35.60,87.08L35.58,87.15M95.17,87.34L94.77,87.08M96.25,88.02L95.17,87.34M96.48,88.17L96.25,88.02M108.23,88.17L109.25,87.38M109.63,87.08L109.25,87.38M35.60,87.08L35.98,86.00M94.08,86.65L93.07,86.00M94.77,87.08L94.08,86.65M109.63,87.08L110.33,86.52M110.95,86.00L110.33,86.52M35.98,86.00L36.41,84.92M91.92,85.26L91.39,84.92M93.00,85.96L91.92,85.26M93.07,86.00L93.00,85.96M110.95,86.00L111.42,85.61M112.20,84.92L111.42,85.61M36.41,84.92L36.67,84.33M36.90,83.83L36.67,84.33M89.75,83.85L89.72,83.83M90.83,84.56L89.75,83.85M91.39,84.92L90.83,84.56M112.20,84.92L112.50,84.65M113.38,83.83L112.50,84.65M36.90,83.83L37.44,82.75M88.67,83.14L88.07,82.75M89.72,83.83L88.67,83.14M113.38,83.83L113.58,83.64M114.50,82.75L113.58,83.64M37.44,82.75L37.75,82.16M38.02,81.67L37.75,82.16M86.50,81.71L86.43,81.67M87.58,82.43L86.50,81.71M88.07,82.75L87.58,82.43M114.50,82.75L114.67,82.58M115.55,81.67L114.67,82.58M38.02,81.67L38.66,80.58M85.42,80.99L84.81,80.58M86.43,81.67L85.42,80.99M115.55,81.67L115.75,81.45M116.53,80.58L115.75,81.45M38.66,80.58L38.83,80.30M39.34,79.50L38.83,80.30M83.25,79.53L83.20,79.50M84.33,80.26L83.25,79.53M84.81,80.58L84.33,80.26M116.53,80.58L116.83,80.24M117.46,79.50L116.83,80.24M39.34,79.50L39.92,78.62M40.06,78.42L39.92,78.62M82.17,78.79L81.61,78.42M83.20,79.50L82.17,78.79M117.46,79.50L117.92,78.94M118.33,78.42L117.92,78.94M40.06,78.42L40.82,77.33M81.08,78.05L80.04,77.33M81.61,78.42L81.08,78.05M118.33,78.42L119.00,77.52M119.14,77.33L119.00,77.52M40.82,77.33L41.00,77.08M41.62,76.25L41.00,77.08M78.92,76.55L78.49,76.25M80.00,77.30L78.92,76.55M80.04,77.33L80.00,77.30M119.14,77.33L119.89,76.25M41.62,76.25L42.08,75.64M42.46,75.17L42.08,75.64M77.83,75.79L76.95,75.17M78.49,76.25L77.83,75.79M119.89,76.25L120.08,75.97M120.60,75.17L120.08,75.97M42.46,75.17L43.17,74.28M43.33,74.08L43.17,74.28M75.67,74.25L75.43,74.08M76.75,75.03L75.67,74.25M76.95,75.17L76.75,75.03M120.60,75.17L121.17,74.22M121.24,74.08L121.17,74.22M43.33,74.08L44.23,73.00M74.58,73.48L73.92,73.00M75.43,74.08L74.58,73.48M121.24,74.08L121.84,73.00M44.23,73.00L44.25,72.98M45.17,71.92L44.25,72.98M73.50,72.69L72.44,71.92M73.92,73.00L73.50,72.69M121.84,73.00L122.25,72.20M122.39,71.92L122.25,72.20M45.17,71.92L45.33,71.73M46.14,70.83L45.33,71.73M71.33,71.10L70.97,70.83M72.42,71.90L71.33,71.10M72.44,71.92L72.42,71.90M122.39,71.92L122.89,70.83M46.14,70.83L46.42,70.53M47.14,69.75L46.42,70.53M70.25,70.30L69.52,69.75M70.97,70.83L70.25,70.30M122.89,70.83L123.33,69.75M47.14,69.75L47.50,69.37M48.18,68.67L47.50,69.37M69.17,69.48L68.09,68.67M69.52,69.75L69.17,69.48M123.33,69.75L123.33,69.75M123.73,68.67L123.33,69.75M48.18,68.67L48.58,68.25M49.24,67.58L48.58,68.25M67.00,67.83L66.68,67.58M68.08,68.66L67.00,67.83M68.09,68.67L68.08,68.66M123.73,68.67L124.08,67.58M49.24,67.58L49.67,67.15M50.32,66.50L49.67,67.15M65.92,66.99L65.29,66.50M66.68,67.58L65.92,66.99M124.08,67.58L124.38,66.50M50.32,66.50L50.75,66.08M51.44,65.42L50.75,66.08M64.83,66.14L63.92,65.42M65.29,66.50L64.83,66.14M124.38,66.50L124.42,66.37M124.64,65.42L124.42,66.37M51.44,65.42L51.83,65.04M52.58,64.33L51.83,65.04M62.67,64.41L62.57,64.33M63.75,65.28L62.67,64.41M63.92,65.42L63.75,65.28M124.64,65.42L124.85,64.33M52.58,64.33L52.92,64.02M53.74,63.25L52.92,64.02M61.58,63.53L61.25,63.25M62.57,64.33L61.58,63.53M124.85,64.33L125.01,63.25M53.74,63.25L54.00,63.02M54.94,62.17L54.00,63.02M60.50,62.63L59.94,62.17M61.25,63.25L60.50,62.63M125.01,63.25L125.13,62.17M54.94,62.17L55.08,62.03M56.15,61.08L55.08,62.03M59.42,61.73L58.65,61.08M59.94,62.17L59.42,61.73M125.13,62.17L125.19,61.08M56.15,61.08L56.17,61.07M57.25,60.12L56.17,61.07M58.33,60.81L57.25,60.12M58.65,61.08L58.33,60.81M125.19,61.08L125.22,60.00M56.17,58.93L56.15,58.92M57.25,59.88L56.17,58.93M58.33,59.19L57.25,59.88M58.65,58.92L58.33,59.19M125.22,60.00L125.19,58.92M55.08,57.97L54.94,57.83M56.15,58.92L55.08,57.97M58.65,58.92L59.42,58.27M59.94,57.83L59.42,58.27M125.19,58.92L125.13,57.83M54.00,56.98L53.74,56.75M54.94,57.83L54.00,56.98M59.94,57.83L60.50,57.37M61.25,56.75L60.50,57.37M125.13,57.83L125.01,56.75M52.92,55.98L52.58,55.67M53.74,56.75L52.92,55.98M61.25,56.75L61.58,56.47M62.57,55.67L61.58,56.47M125.01,56.75L124.85,55.67M51.83,54.96L51.44,54.58M52.58,55.67L51.83,54.96M62.57,55.67L62.67,55.59M63.75,54.72L62.67,55.59M63.92,54.58L63.75,54.72M124.85,55.67L124.64,54.58M50.75,53.92L50.32,53.50M51.44,54.58L50.75,53.92M63.92,54.58L64.83,53.86M65.29,53.50L64.83,53.86M124.42,53.63L124.38,53.50M124.64,54.58L124.42,53.63M49.67,52.85L49.24,52.42M50.32,53.50L49.67,52.85M65.29,53.50L65.92,53.01M66.68,52.42L65.92,53.01M124.38,53.50L124.08,52.42M48.58,51.75L48.18,51.33M49.24,52.42L48.58,51.75M66.68,52.42L67.00,52.17M68.08,51.34L67.00,52.17M68.09,51.33L68.08,51.34M124.08,52.42L123.73,51.33M47.50,50.63L47.14,50.25M48.18,51.33L47.50,50.63M68.09,51.33L69.17,50.52M69.52,50.25L69.17,50.52M123.33,50.25L123.33,50.25M123.73,51.33L123.33,50.25M46.42,49.47L46.14,49.17M47.14,50.25L46.42,49.47M69.52,50.25L70.25,49.70M70.97,49.17L70.25,49.70M123.33,50.25L122.89,49.17M45.33,48.27L45.17,48.08M46.14,49.17L45.33,48.27M70.97,49.17L71.33,48.90M72.42,48.10L71.33,48.90M72.44,48.08L72.42,48.10M122.89,49.17L122.39,48.08M44.25,47.02L44.23,47.00M45.17,48.08L44.25,47.02M72.44,48.08L73.50,47.31M73.92,47.00L73.50,47.31M122.25,47.80L121.84,47.00M122.39,48.08L122.25,47.80M44.23,47.00L43.33,45.92M73.92,47.00L74.58,46.52M75.43,45.92L74.58,46.52M121.84,47.00L121.24,45.92M43.17,45.72L42.46,44.83M43.33,45.92L43.17,45.72M75.43,45.92L75.67,45.75M76.75,44.97L75.67,45.75M76.95,44.83L76.75,44.97M121.17,45.78L120.60,44.83M121.24,45.92L121.17,45.78M42.08,44.36L41.62,43.75M42.46,44.83L42.08,44.36M76.95,44.83L77.83,44.21M78.49,43.75L77.83,44.21M120.08,44.03L119.89,43.75M120.60,44.83L120.08,44.03M41.00,42.92L40.82,42.67M41.62,43.75L41.00,42.92M78.49,43.75L78.92,43.45M80.00,42.70L78.92,43.45M80.04,42.67L80.00,42.70M119.89,43.75L119.14,42.67M40.82,42.67L40.06,41.58M80.04,42.67L81.08,41.95M81.61,41.58L81.08,41.95M119.00,42.48L118.33,41.58M119.14,42.67L119.00,42.48M39.92,41.38L39.34,40.50M40.06,41.58L39.92,41.38M81.61,41.58L82.17,41.21M83.20,40.50L82.17,41.21M117.92,41.06L117.46,40.50M118.33,41.58L117.92,41.06M38.83,39.70L38.66,39.42M39.34,40.50L38.83,39.70M83.20,40.50L83.25,40.47M84.33,39.74L83.25,40.47M84.81,39.42L84.33,39.74M116.83,39.76L116.53,39.42M117.46,40.50L116.83,39.76M38.66,39.42L38.02,38.33M84.81,39.42L85.42,39.01M86.43,38.33L85.42,39.01M115.75,38.55L115.55,38.33M116.53,39.42L115.75,38.55M37.75,37.84L37.44,37.25M38.02,38.33L37.75,37.84M86.43,38.33L86.50,38.29M87.58,37.57L86.50,38.29M88.07,37.25L87.58,37.57M114.67,37.42L114.50,37.25M115.55,38.33L114.67,37.42M37.44,37.25L36.90,36.17M88.07,37.25L88.67,36.86M89.72,36.17L88.67,36.86M113.58,36.36L113.38,36.17M114.50,37.25L113.58,36.36M36.67,35.67L36.41,35.08M36.90,36.17L36.67,35.67M89.72,36.17L89.75,36.15M90.83,35.44L89.75,36.15M91.39,35.08L90.83,35.44M112.50,35.35L112.20,35.08M113.38,36.17L112.50,35.35M36.41,35.08L35.98,34.00M91.39,35.08L91.92,34.74M93.00,34.04L91.92,34.74M93.07,34.00L93.00,34.04M111.42,34.39L110.95,34.00M112.20,35.08L111.42,34.39M35.98,34.00L35.60,32.92M93.07,34.00L94.08,33.35M94.77,32.92L94.08,33.35M110.33,33.48L109.63,32.92M110.95,34.00L110.33,33.48M35.58,32.85L35.29,31.83M35.60,32.92L35.58,32.85M94.77,32.92L95.17,32.66M96.25,31.98L95.17,32.66M96.48,31.83L96.25,31.98M109.25,32.62L108.23,31.83M109.63,32.92L109.25,32.62M35.29,31.83L35.05,30.75M96.48,31.83L97.33,31.30M98.21,30.75L97.33,31.30M107.08,30.99L106.74,30.75M108.17,31.79L107.08,30.99M108.23,31.83L108.17,31.79M35.05,30.75L34.88,29.67M98.21,30.75L98.42,30.62M99.50,29.94L98.42,30.62M99.95,29.67L99.50,29.94M106.00,30.23L105.17,29.67M106.74,30.75L106.00,30.23M34.88,29.67L34.79,28.58M99.95,29.67L100.58,29.27M101.67,28.60L100.58,29.27M101.70,28.58L101.67,28.60M103.83,28.79L103.50,28.58M104.92,29.50L103.83,28.79M105.17,29.67L104.92,29.50M34.79,28.58L34.79,27.50M101.70,28.58L101.74,27.50M103.50,28.58L103.47,27.50M34.79,27.50L34.89,26.42M100.58,26.83L99.86,26.42M101.67,27.46L100.58,26.83M101.74,27.50L101.67,27.46M103.47,27.50L103.83,27.28M104.92,26.62L103.83,27.28M105.25,26.42L104.92,26.62M34.89,26.42L35.10,25.33M98.42,25.63L97.86,25.33M99.50,26.22L98.42,25.63M99.86,26.42L99.50,26.22M105.25,26.42L106.00,25.96M107.05,25.33L106.00,25.96M35.10,25.33L35.42,24.25M96.25,24.51L95.72,24.25M97.33,25.06L96.25,24.51M97.86,25.33L97.33,25.06M107.05,25.33L107.08,25.31M108.17,24.66L107.08,25.31M108.86,24.25L108.17,24.66M35.42,24.25L35.58,23.84M35.89,23.17L35.58,23.84M94.08,23.47L93.43,23.17M95.17,23.98L94.08,23.47M95.72,24.25L95.17,23.98M108.86,24.25L109.25,24.02M110.33,23.37L109.25,24.02M110.68,23.17L110.33,23.37M35.89,23.17L36.53,22.08M91.92,22.50L90.95,22.08M93.00,22.97L91.92,22.50M93.43,23.17L93.00,22.97M110.68,23.17L111.42,22.73M112.50,22.09L111.42,22.73M112.52,22.08L112.50,22.09M36.53,22.08L36.67,21.89M37.37,21.00L36.67,21.89M88.67,21.16L88.27,21.00M89.75,21.59L88.67,21.16M90.83,22.03L89.75,21.59M90.95,22.08L90.83,22.03M112.52,22.08L113.58,21.46M114.37,21.00L113.58,21.46M37.37,21.00L37.75,20.58M38.45,19.92L37.75,20.58M85.42,19.95L85.32,19.92M86.50,20.34L85.42,19.95M87.58,20.74L86.50,20.34M88.27,21.00L87.58,20.74M114.37,21.00L114.67,20.82M115.75,20.19L114.67,20.82M116.23,19.92L115.75,20.19M38.45,19.92L38.83,19.59M39.86,18.83L38.83,19.59M82.17,18.87L82.04,18.83M83.25,19.22L82.17,18.87M84.33,19.58L83.25,19.22M85.32,19.92L84.33,19.58M116.23,19.92L116.83,19.57M117.92,18.94L116.83,19.57M118.10,18.83L117.92,18.94M39.86,18.83L39.92,18.80M41.00,18.13L39.92,18.80M41.72,17.75L41.00,18.13M78.92,17.92L78.29,17.75M80.00,18.22L78.92,17.92M81.08,18.54L80.00,18.22M82.04,18.83L81.08,18.54M118.10,18.83L119.00,18.32M119.99,17.75L119.00,18.32M41.72,17.75L42.08,17.57M43.17,17.10L42.08,17.57M44.25,16.69L43.17,17.10M44.30,16.67L44.25,16.69M74.58,16.84L73.81,16.67M75.67,17.09L74.58,16.84M76.75,17.35L75.67,17.09M77.83,17.63L76.75,17.35M78.29,17.75L77.83,17.63M119.99,17.75L120.08,17.70M121.17,17.08L120.08,17.70M121.89,16.67L121.17,17.08M44.30,16.67L45.33,16.33M46.42,16.03L45.33,16.33M47.50,15.76L46.42,16.03M48.36,15.58L47.50,15.76M68.08,15.62L67.84,15.58M69.17,15.79L68.08,15.62M70.25,15.97L69.17,15.79M71.33,16.17L70.25,15.97M72.42,16.38L71.33,16.17M73.50,16.60L72.42,16.38M73.81,16.67L73.50,16.60M121.89,16.67L122.25,16.46M123.33,15.85L122.25,16.46M123.80,15.58L123.33,15.85M48.36,15.58L48.58,15.54M49.67,15.35L48.58,15.54M50.75,15.19L49.67,15.35M51.83,15.06L50.75,15.19M52.92,14.96L51.83,15.06M54.00,14.88L52.92,14.96M55.08,14.83L54.00,14.88M56.17,14.80L55.08,14.83M57.25,14.78L56.17,14.80M58.33,14.79L57.25,14.78M59.42,14.82L58.33,14.79M60.50,14.86L59.42,14.82M61.58,14.92L60.50,14.86M62.67,15.00L61.58,14.92M63.75,15.09L62.67,15.00M64.83,15.20L63.75,15.09M65.92,15.33L64.83,15.20M67.00,15.47L65.92,15.33M67.84,15.58L67.00,15.47M123.80,15.58L124.42,15.23M125.50,14.62L124.42,15.23M125.72,14.50L125.50,14.62M125.72,14.50L126.58,14.02M127.66,13.42L126.58,14.02M127.66,13.42L127.67,13.41M128.75,12.81L127.67,13.41M129.60,12.33L128.75,12.81M129.60,12.33L129.83,12.21M130.92,11.61L129.83,12.21M131.56,11.25L130.92,11.61M131.56,11.25L132.00,11.01" fill="none" stroke="#e8643a" stroke-width="1.15" stroke-linecap="round" stroke-linejoin="round"/></svg>